<svg width="700px" height="446px" version="1.1" xmlns="http://www.w3.org/2000/svg">
<line x1="110" y1="40" x2="153" y2="136" stroke="blue" stroke-width="5">
</line>
<line x1="214" y1="138" x2="153" y2="136" stroke="blue" stroke-width="5">
</line>
<line x1="144" y1="192" x2="153" y2="136" stroke="blue" stroke-width="5">
</line>
<line x1="144" y1="192" x2="89" y2="211" stroke="blue" stroke-width="5">
</line>
<line x1="144" y1="192" x2="177" y2="222" stroke="blue" stroke-width="5">
</line>
<line x1="144" y1="192" x2="200" y2="168" stroke="blue" stroke-width="5">
</line>
<line x1="214" y1="138" x2="200" y2="168" stroke="blue" stroke-width="5">
</line>
<line x1="214" y1="138" x2="265" y2="144" stroke="blue" stroke-width="5">
</line>
<line x1="89" y1="211" x2="177" y2="222" stroke="blue" stroke-width="5">
</line>
<line x1="200" y1="168" x2="177" y2="222" stroke="blue" stroke-width="5">
</line>
<line x1="256" y1="187" x2="177" y2="222" stroke="blue" stroke-width="5">
</line>
<line x1="256" y1="187" x2="200" y2="168" stroke="blue" stroke-width="5">
</line>
<line x1="256" y1="187" x2="214" y2="138" stroke="blue" stroke-width="5">
</line>
<line x1="256" y1="187" x2="265" y2="144" stroke="blue" stroke-width="5">
</line>
<line x1="256" y1="187" x2="329" y2="153" stroke="blue" stroke-width="5">
</line>
<line x1="256" y1="187" x2="294" y2="216" stroke="blue" stroke-width="5">
</line>
<line x1="250" y1="256" x2="294" y2="216" stroke="blue" stroke-width="5">
</line>
<line x1="366" y1="227" x2="294" y2="216" stroke="blue" stroke-width="5">
</line>
<line x1="303" y1="277" x2="294" y2="216" stroke="blue" stroke-width="5">
</line>
<line x1="303" y1="277" x2="357" y2="285" stroke="blue" stroke-width="5">
</line>
<line x1="303" y1="277" x2="308" y2="334" stroke="blue" stroke-width="5">
</line>
<line x1="303" y1="277" x2="250" y2="256" stroke="blue" stroke-width="5">
</line>
<line x1="177" y1="222" x2="250" y2="256" stroke="blue" stroke-width="5">
</line>
<line x1="234" y1="316" x2="250" y2="256" stroke="blue" stroke-width="5">
</line>
<line x1="234" y1="316" x2="177" y2="222" stroke="blue" stroke-width="5">
</line>
<line x1="136" y1="320" x2="177" y2="222" stroke="blue" stroke-width="5">
</line>
<line x1="136" y1="320" x2="89" y2="211" stroke="blue" stroke-width="5">
</line>
<line x1="136" y1="320" x2="74" y2="370" stroke="blue" stroke-width="5">
</line>
<line x1="136" y1="320" x2="234" y2="316" stroke="blue" stroke-width="5">
</line>
<line x1="136" y1="320" x2="144" y2="378" stroke="blue" stroke-width="5">
</line>
<line x1="74" y1="370" x2="144" y2="378" stroke="blue" stroke-width="5">
</line>
<line x1="74" y1="370" x2="30" y2="386" stroke="blue" stroke-width="5">
</line>
<line x1="74" y1="370" x2="73" y2="419" stroke="blue" stroke-width="5">
</line>
<line x1="30" y1="386" x2="73" y2="419" stroke="blue" stroke-width="5">
</line>
<line x1="144" y1="378" x2="234" y2="316" stroke="blue" stroke-width="5">
</line>
<line x1="308" y1="334" x2="234" y2="316" stroke="blue" stroke-width="5">
</line>
<line x1="308" y1="334" x2="332" y2="419" stroke="blue" stroke-width="5">
</line>
<line x1="308" y1="334" x2="363" y2="352" stroke="blue" stroke-width="5">
</line>
<line x1="332" y1="419" x2="363" y2="352" stroke="blue" stroke-width="5">
</line>
<line x1="442" y1="401" x2="363" y2="352" stroke="blue" stroke-width="5">
</line>
<line x1="442" y1="401" x2="496" y2="417" stroke="blue" stroke-width="5">
</line>
<line x1="332" y1="419" x2="496" y2="417" stroke="blue" stroke-width="5">
</line>
<line x1="442" y1="401" x2="411" y2="322" stroke="blue" stroke-width="5">
</line>
<line x1="442" y1="401" x2="455" y2="327" stroke="blue" stroke-width="5">
</line>
<line x1="524" y1="366" x2="455" y2="327" stroke="blue" stroke-width="5">
</line>
<line x1="524" y1="366" x2="496" y2="417" stroke="blue" stroke-width="5">
</line>
<line x1="524" y1="366" x2="574" y2="402" stroke="blue" stroke-width="5">
</line>
<line x1="524" y1="366" x2="580" y2="297" stroke="blue" stroke-width="5">
</line>
<line x1="524" y1="366" x2="492" y2="287" stroke="blue" stroke-width="5">
</line>
<line x1="455" y1="327" x2="492" y2="287" stroke="blue" stroke-width="5">
</line>
<line x1="580" y1="297" x2="492" y2="287" stroke="blue" stroke-width="5">
</line>
<line x1="580" y1="297" x2="625" y2="386" stroke="blue" stroke-width="5">
</line>
<line x1="638" y1="306" x2="625" y2="386" stroke="blue" stroke-width="5">
</line>
<line x1="574" y1="402" x2="625" y2="386" stroke="blue" stroke-width="5">
</line>
<line x1="574" y1="402" x2="496" y2="417" stroke="blue" stroke-width="5">
</line>
<line x1="638" y1="306" x2="580" y2="297" stroke="blue" stroke-width="5">
</line>
<line x1="638" y1="306" x2="641" y2="249" stroke="blue" stroke-width="5">
</line>
<line x1="580" y1="297" x2="641" y2="249" stroke="blue" stroke-width="5">
</line>
<line x1="615" y1="214" x2="641" y2="249" stroke="blue" stroke-width="5">
</line>
<line x1="615" y1="214" x2="530" y2="182" stroke="blue" stroke-width="5">
</line>
<line x1="615" y1="214" x2="624" y2="118" stroke="blue" stroke-width="5">
</line>
<line x1="563" y1="42" x2="624" y2="118" stroke="blue" stroke-width="5">
</line>
<line x1="568" y1="135" x2="624" y2="118" stroke="blue" stroke-width="5">
</line>
<line x1="568" y1="135" x2="530" y2="182" stroke="blue" stroke-width="5">
</line>
<line x1="568" y1="135" x2="504" y2="131" stroke="blue" stroke-width="5">
</line>
<line x1="563" y1="42" x2="504" y2="131" stroke="blue" stroke-width="5">
</line>
<line x1="530" y1="182" x2="504" y2="131" stroke="blue" stroke-width="5">
</line>
<line x1="433" y1="148" x2="504" y2="131" stroke="blue" stroke-width="5">
</line>
<line x1="454" y1="45" x2="504" y2="131" stroke="blue" stroke-width="5">
</line>
<line x1="454" y1="45" x2="563" y2="42" stroke="blue" stroke-width="5">
</line>
<line x1="377" y1="27" x2="563" y2="42" stroke="blue" stroke-width="5">
</line>
<line x1="377" y1="27" x2="311" y2="76" stroke="blue" stroke-width="5">
</line>
<line x1="265" y1="144" x2="311" y2="76" stroke="blue" stroke-width="5">
</line>
<line x1="265" y1="144" x2="329" y2="153" stroke="blue" stroke-width="5">
</line>
<line x1="403" y1="103" x2="329" y2="153" stroke="blue" stroke-width="5">
</line>
<line x1="433" y1="148" x2="329" y2="153" stroke="blue" stroke-width="5">
</line>
<line x1="366" y1="227" x2="329" y2="153" stroke="blue" stroke-width="5">
</line>
<line x1="433" y1="148" x2="366" y2="227" stroke="blue" stroke-width="5">
</line>
<line x1="433" y1="148" x2="403" y2="103" stroke="blue" stroke-width="5">
</line>
<line x1="454" y1="45" x2="403" y2="103" stroke="blue" stroke-width="5">
</line>
<line x1="433" y1="148" x2="530" y2="182" stroke="blue" stroke-width="5">
</line>
<line x1="492" y1="287" x2="530" y2="182" stroke="blue" stroke-width="5">
</line>
<line x1="395" y1="244" x2="530" y2="182" stroke="blue" stroke-width="5">
</line>
<line x1="395" y1="244" x2="492" y2="287" stroke="blue" stroke-width="5">
</line>
<line x1="411" y1="322" x2="395" y2="244" stroke="blue" stroke-width="5">
</line>
<line x1="411" y1="322" x2="455" y2="327" stroke="blue" stroke-width="5">
</line>
<line x1="411" y1="322" x2="357" y2="285" stroke="blue" stroke-width="5">
</line>
<line x1="395" y1="244" x2="357" y2="285" stroke="blue" stroke-width="5">
</line>
<line x1="366" y1="227" x2="357" y2="285" stroke="blue" stroke-width="5">
</line>
<line x1="366" y1="227" x2="395" y2="244" stroke="blue" stroke-width="5">
</line>
<circle cx="110" cy="40" r="5" fill="red" />
<text x="117" y="40" fill="red">Edinburch</text>
<circle cx="153" cy="136" r="5" fill="red" />
<text x="160" y="136" fill="red">London</text>
<circle cx="214" cy="138" r="5" fill="red" />
<text x="221" y="138" fill="red">Amsterdam</text>
<circle cx="144" cy="192" r="5" fill="red" />
<text x="151" y="192" fill="red">Dieppe</text>
<circle cx="89" cy="211" r="5" fill="red" />
<text x="96" y="211" fill="red">Brest</text>
<circle cx="177" cy="222" r="5" fill="red" />
<text x="184" y="222" fill="red">Paris</text>
<circle cx="200" cy="168" r="5" fill="red" />
<text x="207" y="168" fill="red">Bruxelles</text>
<circle cx="265" cy="144" r="5" fill="red" />
<text x="272" y="144" fill="red">Essen</text>
<circle cx="256" cy="187" r="5" fill="red" />
<text x="263" y="187" fill="red">Frankfurt</text>
<circle cx="329" cy="153" r="5" fill="red" />
<text x="336" y="153" fill="red">Berlin</text>
<circle cx="294" cy="216" r="5" fill="red" />
<text x="301" y="216" fill="red">Munchen</text>
<circle cx="250" cy="256" r="5" fill="red" />
<text x="257" y="256" fill="red">Zurich</text>
<circle cx="366" cy="227" r="5" fill="red" />
<text x="373" y="227" fill="red">Wien</text>
<circle cx="303" cy="277" r="5" fill="red" />
<text x="310" y="277" fill="red">Venezia</text>
<circle cx="357" cy="285" r="5" fill="red" />
<text x="364" y="285" fill="red">Zagreb</text>
<circle cx="308" cy="334" r="5" fill="red" />
<text x="315" y="334" fill="red">Roma</text>
<circle cx="234" cy="316" r="5" fill="red" />
<text x="241" y="316" fill="red">Marseille</text>
<circle cx="136" cy="320" r="5" fill="red" />
<text x="143" y="320" fill="red">Pamplona</text>
<circle cx="74" cy="370" r="5" fill="red" />
<text x="81" y="370" fill="red">Madrid</text>
<circle cx="144" cy="378" r="5" fill="red" />
<text x="151" y="378" fill="red">Barcelonna</text>
<circle cx="30" cy="386" r="5" fill="red" />
<text x="37" y="386" fill="red">Lisboa</text>
<circle cx="73" cy="419" r="5" fill="red" />
<text x="80" y="419" fill="red">Cadiz</text>
<circle cx="332" cy="419" r="5" fill="red" />
<text x="339" y="419" fill="red">Palermo</text>
<circle cx="363" cy="352" r="5" fill="red" />
<text x="370" y="352" fill="red">Brindisi</text>
<circle cx="442" cy="401" r="5" fill="red" />
<text x="449" y="401" fill="red">Athena</text>
<circle cx="496" cy="417" r="5" fill="red" />
<text x="503" y="417" fill="red">Smyrna</text>
<circle cx="411" cy="322" r="5" fill="red" />
<text x="418" y="322" fill="red">Sarajevo</text>
<circle cx="455" cy="327" r="5" fill="red" />
<text x="462" y="327" fill="red">Sofia</text>
<circle cx="524" cy="366" r="5" fill="red" />
<text x="531" y="366" fill="red">Constantinople</text>
<circle cx="574" cy="402" r="5" fill="red" />
<text x="581" y="402" fill="red">Ancora</text>
<circle cx="580" cy="297" r="5" fill="red" />
<text x="587" y="297" fill="red">Sevastopol</text>
<circle cx="492" cy="287" r="5" fill="red" />
<text x="499" y="287" fill="red">Bucuresti</text>
<circle cx="625" cy="386" r="5" fill="red" />
<text x="632" y="386" fill="red">Erzurus</text>
<circle cx="638" cy="306" r="5" fill="red" />
<text x="645" y="306" fill="red">Socri</text>
<circle cx="641" cy="249" r="5" fill="red" />
<text x="648" y="249" fill="red">Rostov</text>
<circle cx="615" cy="214" r="5" fill="red" />
<text x="622" y="214" fill="red">Kharkov</text>
<circle cx="530" cy="182" r="5" fill="red" />
<text x="537" y="182" fill="red">Kyiv</text>
<circle cx="624" cy="118" r="5" fill="red" />
<text x="631" y="118" fill="red">Moskva</text>
<circle cx="563" cy="42" r="5" fill="red" />
<text x="570" y="42" fill="red">Petrograd</text>
<circle cx="568" cy="135" r="5" fill="red" />
<text x="575" y="135" fill="red">Skolensk</text>
<circle cx="504" cy="131" r="5" fill="red" />
<text x="511" y="131" fill="red">Wilno</text>
<circle cx="433" cy="148" r="5" fill="red" />
<text x="440" y="148" fill="red">Warszawa</text>
<circle cx="454" cy="45" r="5" fill="red" />
<text x="461" y="45" fill="red">Riga</text>
<circle cx="377" cy="27" r="5" fill="red" />
<text x="384" y="27" fill="red">Stockolm</text>
<circle cx="311" cy="76" r="5" fill="red" />
<text x="318" y="76" fill="red">Kobenhavn</text>
<circle cx="403" cy="103" r="5" fill="red" />
<text x="410" y="103" fill="red">Danzic</text>
<circle cx="395" cy="244" r="5" fill="red" />
<text x="402" y="244" fill="red">Budapest</text>
</svg>
