<svg width="700px" height="446px" version="1.1" xmlns="http://www.w3.org/2000/svg">
<rect x="0" width="700" height="446" fill="cornsilk" rx="0" />
<line x1="110" y1="40" x2="153" y2="136" stroke="lightgrey" stroke-width="5">
</line>
<text text-anchor="middle" x="131.5" y="88" fill="red">4</text>
<line x1="214" y1="138" x2="153" y2="136" stroke="lightgrey" stroke-width="5">
</line>
<text text-anchor="middle" x="183.5" y="137" fill="red">2</text>
<line x1="144" y1="192" x2="153" y2="136" stroke="lightgrey" stroke-width="5">
</line>
<text text-anchor="middle" x="148.5" y="164" fill="red">2</text>
<line x1="144" y1="192" x2="89" y2="211" stroke="lightgrey" stroke-width="5">
</line>
<text text-anchor="middle" x="116.5" y="201.5" fill="red">2</text>
<line x1="144" y1="192" x2="177" y2="222" stroke="lightgrey" stroke-width="5">
</line>
<text text-anchor="middle" x="160.5" y="207" fill="red">1</text>
<line x1="144" y1="192" x2="200" y2="168" stroke="lightgrey" stroke-width="5">
</line>
<text text-anchor="middle" x="172" y="180" fill="red">2</text>
<line x1="214" y1="138" x2="200" y2="168" stroke="lightgrey" stroke-width="5">
</line>
<text text-anchor="middle" x="207" y="153" fill="red">1</text>
<line x1="214" y1="138" x2="265" y2="144" stroke="lightgrey" stroke-width="5">
</line>
<text text-anchor="middle" x="239.5" y="141" fill="red">3</text>
<line x1="89" y1="211" x2="177" y2="222" stroke="lightgrey" stroke-width="5">
</line>
<text text-anchor="middle" x="133" y="216.5" fill="red">3</text>
<line x1="200" y1="168" x2="177" y2="222" stroke="lightgrey" stroke-width="5">
</line>
<text text-anchor="middle" x="188.5" y="195" fill="red">2</text>
<line x1="256" y1="187" x2="177" y2="222" stroke="lightgrey" stroke-width="5">
</line>
<text text-anchor="middle" x="216.5" y="204.5" fill="red">3</text>
<line x1="256" y1="187" x2="200" y2="168" stroke="lightgrey" stroke-width="5">
</line>
<text text-anchor="middle" x="228" y="177.5" fill="red">2</text>
<line x1="256" y1="187" x2="214" y2="138" stroke="lightgrey" stroke-width="5">
</line>
<text text-anchor="middle" x="235" y="162.5" fill="red">2</text>
<line x1="256" y1="187" x2="265" y2="144" stroke="lightgrey" stroke-width="5">
</line>
<text text-anchor="middle" x="260.5" y="165.5" fill="red">2</text>
<line x1="256" y1="187" x2="329" y2="153" stroke="lightgrey" stroke-width="5">
</line>
<text text-anchor="middle" x="292.5" y="170" fill="red">3</text>
<line x1="256" y1="187" x2="294" y2="216" stroke="lightgrey" stroke-width="5">
</line>
<text text-anchor="middle" x="275" y="201.5" fill="red">2</text>
<line x1="250" y1="256" x2="294" y2="216" stroke="lightgrey" stroke-width="5">
</line>
<text text-anchor="middle" x="272" y="236" fill="red">2</text>
<line x1="366" y1="227" x2="294" y2="216" stroke="lightgrey" stroke-width="5">
</line>
<text text-anchor="middle" x="330" y="221.5" fill="red">3</text>
<line x1="303" y1="277" x2="294" y2="216" stroke="lightgrey" stroke-width="5">
</line>
<text text-anchor="middle" x="298.5" y="246.5" fill="red">2</text>
<line x1="303" y1="277" x2="357" y2="285" stroke="lightgrey" stroke-width="5">
</line>
<text text-anchor="middle" x="330" y="281" fill="red">2</text>
<line x1="303" y1="277" x2="308" y2="334" stroke="lightgrey" stroke-width="5">
</line>
<text text-anchor="middle" x="305.5" y="305.5" fill="red">2</text>
<line x1="303" y1="277" x2="250" y2="256" stroke="lightgrey" stroke-width="5">
</line>
<text text-anchor="middle" x="276.5" y="266.5" fill="red">2</text>
<line x1="177" y1="222" x2="250" y2="256" stroke="lightgrey" stroke-width="5">
</line>
<text text-anchor="middle" x="213.5" y="239" fill="red">3</text>
<line x1="234" y1="316" x2="250" y2="256" stroke="lightgrey" stroke-width="5">
</line>
<text text-anchor="middle" x="242" y="286" fill="red">2</text>
<line x1="234" y1="316" x2="177" y2="222" stroke="lightgrey" stroke-width="5">
</line>
<text text-anchor="middle" x="205.5" y="269" fill="red">4</text>
<line x1="136" y1="320" x2="177" y2="222" stroke="lightgrey" stroke-width="5">
</line>
<text text-anchor="middle" x="156.5" y="271" fill="red">4</text>
<line x1="136" y1="320" x2="89" y2="211" stroke="lightgrey" stroke-width="5">
</line>
<text text-anchor="middle" x="112.5" y="265.5" fill="red">4</text>
<line x1="136" y1="320" x2="74" y2="370" stroke="lightgrey" stroke-width="5">
</line>
<text text-anchor="middle" x="105" y="345" fill="red">3</text>
<line x1="136" y1="320" x2="234" y2="316" stroke="lightgrey" stroke-width="5">
</line>
<text text-anchor="middle" x="185" y="318" fill="red">4</text>
<line x1="136" y1="320" x2="144" y2="378" stroke="lightgrey" stroke-width="5">
</line>
<text text-anchor="middle" x="140" y="349" fill="red">2</text>
<line x1="74" y1="370" x2="144" y2="378" stroke="lightgrey" stroke-width="5">
</line>
<text text-anchor="middle" x="109" y="374" fill="red">2</text>
<line x1="74" y1="370" x2="30" y2="386" stroke="lightgrey" stroke-width="5">
</line>
<text text-anchor="middle" x="52" y="378" fill="red">3</text>
<line x1="74" y1="370" x2="73" y2="419" stroke="lightgrey" stroke-width="5">
</line>
<text text-anchor="middle" x="73.5" y="394.5" fill="red">3</text>
<line x1="30" y1="386" x2="73" y2="419" stroke="lightgrey" stroke-width="5">
</line>
<text text-anchor="middle" x="51.5" y="402.5" fill="red">3</text>
<line x1="144" y1="378" x2="234" y2="316" stroke="lightgrey" stroke-width="5">
</line>
<text text-anchor="middle" x="189" y="347" fill="red">4</text>
<line x1="308" y1="334" x2="234" y2="316" stroke="lightgrey" stroke-width="5">
</line>
<text text-anchor="middle" x="271" y="325" fill="red">4</text>
<line x1="308" y1="334" x2="332" y2="419" stroke="lightgrey" stroke-width="5">
</line>
<text text-anchor="middle" x="320" y="376.5" fill="red">4</text>
<line x1="308" y1="334" x2="363" y2="352" stroke="lightgrey" stroke-width="5">
</line>
<text text-anchor="middle" x="335.5" y="343" fill="red">2</text>
<line x1="332" y1="419" x2="363" y2="352" stroke="lightgrey" stroke-width="5">
</line>
<text text-anchor="middle" x="347.5" y="385.5" fill="red">3</text>
<line x1="442" y1="401" x2="363" y2="352" stroke="lightgrey" stroke-width="5">
</line>
<text text-anchor="middle" x="402.5" y="376.5" fill="red">4</text>
<line x1="442" y1="401" x2="496" y2="417" stroke="lightgrey" stroke-width="5">
</line>
<text text-anchor="middle" x="469" y="409" fill="red">2</text>
<line x1="332" y1="419" x2="496" y2="417" stroke="lightgrey" stroke-width="5">
</line>
<text text-anchor="middle" x="414" y="418" fill="red">6</text>
<line x1="442" y1="401" x2="411" y2="322" stroke="lightgrey" stroke-width="5">
</line>
<text text-anchor="middle" x="426.5" y="361.5" fill="red">4</text>
<line x1="442" y1="401" x2="455" y2="327" stroke="lightgrey" stroke-width="5">
</line>
<text text-anchor="middle" x="448.5" y="364" fill="red">3</text>
<line x1="524" y1="366" x2="455" y2="327" stroke="lightgrey" stroke-width="5">
</line>
<text text-anchor="middle" x="489.5" y="346.5" fill="red">3</text>
<line x1="524" y1="366" x2="496" y2="417" stroke="lightgrey" stroke-width="5">
</line>
<text text-anchor="middle" x="510" y="391.5" fill="red">2</text>
<line x1="524" y1="366" x2="574" y2="402" stroke="lightgrey" stroke-width="5">
</line>
<text text-anchor="middle" x="549" y="384" fill="red">2</text>
<line x1="524" y1="366" x2="580" y2="297" stroke="lightgrey" stroke-width="5">
</line>
<text text-anchor="middle" x="552" y="331.5" fill="red">4</text>
<line x1="524" y1="366" x2="492" y2="287" stroke="lightgrey" stroke-width="5">
</line>
<text text-anchor="middle" x="508" y="326.5" fill="red">3</text>
<line x1="455" y1="327" x2="492" y2="287" stroke="lightgrey" stroke-width="5">
</line>
<text text-anchor="middle" x="473.5" y="307" fill="red">2</text>
<line x1="580" y1="297" x2="492" y2="287" stroke="lightgrey" stroke-width="5">
</line>
<text text-anchor="middle" x="536" y="292" fill="red">4</text>
<line x1="580" y1="297" x2="625" y2="386" stroke="lightgrey" stroke-width="5">
</line>
<text text-anchor="middle" x="602.5" y="341.5" fill="red">4</text>
<line x1="638" y1="306" x2="625" y2="386" stroke="lightgrey" stroke-width="5">
</line>
<text text-anchor="middle" x="631.5" y="346" fill="red">3</text>
<line x1="574" y1="402" x2="625" y2="386" stroke="lightgrey" stroke-width="5">
</line>
<text text-anchor="middle" x="599.5" y="394" fill="red">3</text>
<line x1="574" y1="402" x2="496" y2="417" stroke="lightgrey" stroke-width="5">
</line>
<text text-anchor="middle" x="535" y="409.5" fill="red">3</text>
<line x1="638" y1="306" x2="580" y2="297" stroke="lightgrey" stroke-width="5">
</line>
<text text-anchor="middle" x="609" y="301.5" fill="red">2</text>
<line x1="638" y1="306" x2="641" y2="249" stroke="lightgrey" stroke-width="5">
</line>
<text text-anchor="middle" x="639.5" y="277.5" fill="red">2</text>
<line x1="580" y1="297" x2="641" y2="249" stroke="lightgrey" stroke-width="5">
</line>
<text text-anchor="middle" x="610.5" y="273" fill="red">4</text>
<line x1="615" y1="214" x2="641" y2="249" stroke="lightgrey" stroke-width="5">
</line>
<text text-anchor="middle" x="628" y="231.5" fill="red">2</text>
<line x1="615" y1="214" x2="530" y2="182" stroke="lightgrey" stroke-width="5">
</line>
<text text-anchor="middle" x="572.5" y="198" fill="red">4</text>
<line x1="615" y1="214" x2="624" y2="118" stroke="lightgrey" stroke-width="5">
</line>
<text text-anchor="middle" x="619.5" y="166" fill="red">4</text>
<line x1="563" y1="42" x2="624" y2="118" stroke="lightgrey" stroke-width="5">
</line>
<text text-anchor="middle" x="593.5" y="80" fill="red">4</text>
<line x1="568" y1="135" x2="624" y2="118" stroke="lightgrey" stroke-width="5">
</line>
<text text-anchor="middle" x="596" y="126.5" fill="red">2</text>
<line x1="568" y1="135" x2="530" y2="182" stroke="lightgrey" stroke-width="5">
</line>
<text text-anchor="middle" x="549" y="158.5" fill="red">3</text>
<line x1="568" y1="135" x2="504" y2="131" stroke="lightgrey" stroke-width="5">
</line>
<text text-anchor="middle" x="536" y="133" fill="red">3</text>
<line x1="563" y1="42" x2="504" y2="131" stroke="lightgrey" stroke-width="5">
</line>
<text text-anchor="middle" x="533.5" y="86.5" fill="red">4</text>
<line x1="530" y1="182" x2="504" y2="131" stroke="lightgrey" stroke-width="5">
</line>
<text text-anchor="middle" x="517" y="156.5" fill="red">2</text>
<line x1="433" y1="148" x2="504" y2="131" stroke="lightgrey" stroke-width="5">
</line>
<text text-anchor="middle" x="468.5" y="139.5" fill="red">3</text>
<line x1="454" y1="45" x2="504" y2="131" stroke="lightgrey" stroke-width="5">
</line>
<text text-anchor="middle" x="479" y="88" fill="red">4</text>
<line x1="454" y1="45" x2="563" y2="42" stroke="lightgrey" stroke-width="5">
</line>
<text text-anchor="middle" x="508.5" y="43.5" fill="red">4</text>
<line x1="377" y1="27" x2="563" y2="42" stroke="lightgrey" stroke-width="5">
</line>
<text text-anchor="middle" x="470" y="34.5" fill="red">8</text>
<line x1="377" y1="27" x2="311" y2="76" stroke="lightgrey" stroke-width="5">
</line>
<text text-anchor="middle" x="344" y="51.5" fill="red">3</text>
<line x1="265" y1="144" x2="311" y2="76" stroke="lightgrey" stroke-width="5">
</line>
<text text-anchor="middle" x="288" y="110" fill="red">3</text>
<line x1="265" y1="144" x2="329" y2="153" stroke="lightgrey" stroke-width="5">
</line>
<text text-anchor="middle" x="297" y="148.5" fill="red">2</text>
<line x1="403" y1="103" x2="329" y2="153" stroke="lightgrey" stroke-width="5">
</line>
<text text-anchor="middle" x="366" y="128" fill="red">4</text>
<line x1="433" y1="148" x2="329" y2="153" stroke="lightgrey" stroke-width="5">
</line>
<text text-anchor="middle" x="381" y="150.5" fill="red">4</text>
<line x1="366" y1="227" x2="329" y2="153" stroke="lightgrey" stroke-width="5">
</line>
<text text-anchor="middle" x="347.5" y="190" fill="red">3</text>
<line x1="433" y1="148" x2="366" y2="227" stroke="lightgrey" stroke-width="5">
</line>
<text text-anchor="middle" x="399.5" y="187.5" fill="red">4</text>
<line x1="433" y1="148" x2="403" y2="103" stroke="lightgrey" stroke-width="5">
</line>
<text text-anchor="middle" x="418" y="125.5" fill="red">2</text>
<line x1="454" y1="45" x2="403" y2="103" stroke="lightgrey" stroke-width="5">
</line>
<text text-anchor="middle" x="428.5" y="74" fill="red">3</text>
<line x1="433" y1="148" x2="530" y2="182" stroke="lightgrey" stroke-width="5">
</line>
<text text-anchor="middle" x="481.5" y="165" fill="red">4</text>
<line x1="492" y1="287" x2="530" y2="182" stroke="lightgrey" stroke-width="5">
</line>
<text text-anchor="middle" x="511" y="234.5" fill="red">4</text>
<line x1="395" y1="244" x2="530" y2="182" stroke="lightgrey" stroke-width="5">
</line>
<text text-anchor="middle" x="462.5" y="213" fill="red">6</text>
<line x1="395" y1="244" x2="492" y2="287" stroke="lightgrey" stroke-width="5">
</line>
<text text-anchor="middle" x="443.5" y="265.5" fill="red">4</text>
<line x1="411" y1="322" x2="395" y2="244" stroke="lightgrey" stroke-width="5">
</line>
<text text-anchor="middle" x="403" y="283" fill="red">3</text>
<line x1="411" y1="322" x2="455" y2="327" stroke="lightgrey" stroke-width="5">
</line>
<text text-anchor="middle" x="433" y="324.5" fill="red">2</text>
<line x1="411" y1="322" x2="357" y2="285" stroke="lightgrey" stroke-width="5">
</line>
<text text-anchor="middle" x="384" y="303.5" fill="red">3</text>
<line x1="395" y1="244" x2="357" y2="285" stroke="lightgrey" stroke-width="5">
</line>
<text text-anchor="middle" x="376" y="264.5" fill="red">2</text>
<line x1="366" y1="227" x2="357" y2="285" stroke="lightgrey" stroke-width="5">
</line>
<text text-anchor="middle" x="361.5" y="256" fill="red">2</text>
<line x1="366" y1="227" x2="395" y2="244" stroke="lightgrey" stroke-width="5">
</line>
<text text-anchor="middle" x="380.5" y="235.5" fill="red">1</text>
<line x1="73" y1="419" x2="74" y2="370" stroke="blue" stroke-width="0">
	<animate attributeName="stroke-width" from="10" to="0" dur="4s" begin="edge24.end" fill="freeze"/>
	<animate id="edge1" attributeName="stroke-width" from="0" to="5" dur="0.2s" fill="freeze" begin="0s;edge24.end + 4s" />
</line>
<line x1="74" y1="370" x2="144" y2="378" stroke="blue" stroke-width="0">
	<animate attributeName="stroke-width" from="10" to="0" dur="4s" begin="edge24.end" fill="freeze"/>
	<animate id="edge2" attributeName="stroke-width" from="0" to="5" dur="0.2s" fill="freeze" begin="edge1.end" />
</line>
<line x1="144" y1="378" x2="234" y2="316" stroke="blue" stroke-width="0">
	<animate attributeName="stroke-width" from="10" to="0" dur="4s" begin="edge24.end" fill="freeze"/>
	<animate id="edge3" attributeName="stroke-width" from="0" to="5" dur="0.2s" fill="freeze" begin="edge2.end" />
</line>
<line x1="234" y1="316" x2="250" y2="256" stroke="blue" stroke-width="0">
	<animate attributeName="stroke-width" from="10" to="0" dur="4s" begin="edge24.end" fill="freeze"/>
	<animate id="edge4" attributeName="stroke-width" from="0" to="5" dur="0.2s" fill="freeze" begin="edge3.end" />
</line>
<line x1="250" y1="256" x2="303" y2="277" stroke="blue" stroke-width="0">
	<animate attributeName="stroke-width" from="10" to="0" dur="4s" begin="edge24.end" fill="freeze"/>
	<animate id="edge5" attributeName="stroke-width" from="0" to="5" dur="0.2s" fill="freeze" begin="edge4.end" />
</line>
<line x1="303" y1="277" x2="308" y2="334" stroke="blue" stroke-width="0">
	<animate attributeName="stroke-width" from="10" to="0" dur="4s" begin="edge24.end" fill="freeze"/>
	<animate id="edge6" attributeName="stroke-width" from="0" to="5" dur="0.2s" fill="freeze" begin="edge5.end" />
</line>
<line x1="308" y1="334" x2="332" y2="419" stroke="blue" stroke-width="0">
	<animate attributeName="stroke-width" from="10" to="0" dur="4s" begin="edge24.end" fill="freeze"/>
	<animate id="edge7" attributeName="stroke-width" from="0" to="5" dur="0.2s" fill="freeze" begin="edge6.end" />
</line>
<line x1="332" y1="419" x2="496" y2="417" stroke="blue" stroke-width="0">
	<animate attributeName="stroke-width" from="10" to="0" dur="4s" begin="edge24.end" fill="freeze"/>
	<animate id="edge8" attributeName="stroke-width" from="0" to="5" dur="0.2s" fill="freeze" begin="edge7.end" />
</line>
<line x1="496" y1="417" x2="524" y2="366" stroke="blue" stroke-width="0">
	<animate attributeName="stroke-width" from="10" to="0" dur="4s" begin="edge24.end" fill="freeze"/>
	<animate id="edge9" attributeName="stroke-width" from="0" to="5" dur="0.2s" fill="freeze" begin="edge8.end" />
</line>
<line x1="524" y1="366" x2="580" y2="297" stroke="blue" stroke-width="0">
	<animate attributeName="stroke-width" from="10" to="0" dur="4s" begin="edge24.end" fill="freeze"/>
	<animate id="edge10" attributeName="stroke-width" from="0" to="5" dur="0.2s" fill="freeze" begin="edge9.end" />
</line>
<line x1="580" y1="297" x2="638" y2="306" stroke="blue" stroke-width="0">
	<animate attributeName="stroke-width" from="10" to="0" dur="4s" begin="edge24.end" fill="freeze"/>
	<animate id="edge11" attributeName="stroke-width" from="0" to="5" dur="0.2s" fill="freeze" begin="edge10.end" />
</line>
<line x1="638" y1="306" x2="641" y2="249" stroke="blue" stroke-width="0">
	<animate attributeName="stroke-width" from="10" to="0" dur="4s" begin="edge24.end" fill="freeze"/>
	<animate id="edge12" attributeName="stroke-width" from="0" to="5" dur="0.2s" fill="freeze" begin="edge11.end" />
</line>
<line x1="641" y1="249" x2="615" y2="214" stroke="blue" stroke-width="0">
	<animate attributeName="stroke-width" from="10" to="0" dur="4s" begin="edge24.end" fill="freeze"/>
	<animate id="edge13" attributeName="stroke-width" from="0" to="5" dur="0.2s" fill="freeze" begin="edge12.end" />
</line>
<line x1="615" y1="214" x2="624" y2="118" stroke="blue" stroke-width="0">
	<animate attributeName="stroke-width" from="10" to="0" dur="4s" begin="edge24.end" fill="freeze"/>
	<animate id="edge14" attributeName="stroke-width" from="0" to="5" dur="0.2s" fill="freeze" begin="edge13.end" />
</line>
<line x1="624" y1="118" x2="563" y2="42" stroke="blue" stroke-width="0">
	<animate attributeName="stroke-width" from="10" to="0" dur="4s" begin="edge24.end" fill="freeze"/>
	<animate id="edge15" attributeName="stroke-width" from="0" to="5" dur="0.2s" fill="freeze" begin="edge14.end" />
</line>
<line x1="563" y1="42" x2="454" y2="45" stroke="blue" stroke-width="0">
	<animate attributeName="stroke-width" from="10" to="0" dur="4s" begin="edge24.end" fill="freeze"/>
	<animate id="edge16" attributeName="stroke-width" from="0" to="5" dur="0.2s" fill="freeze" begin="edge15.end" />
</line>
<line x1="454" y1="45" x2="403" y2="103" stroke="blue" stroke-width="0">
	<animate attributeName="stroke-width" from="10" to="0" dur="4s" begin="edge24.end" fill="freeze"/>
	<animate id="edge17" attributeName="stroke-width" from="0" to="5" dur="0.2s" fill="freeze" begin="edge16.end" />
</line>
<line x1="403" y1="103" x2="329" y2="153" stroke="blue" stroke-width="0">
	<animate attributeName="stroke-width" from="10" to="0" dur="4s" begin="edge24.end" fill="freeze"/>
	<animate id="edge18" attributeName="stroke-width" from="0" to="5" dur="0.2s" fill="freeze" begin="edge17.end" />
</line>
<line x1="329" y1="153" x2="265" y2="144" stroke="blue" stroke-width="0">
	<animate attributeName="stroke-width" from="10" to="0" dur="4s" begin="edge24.end" fill="freeze"/>
	<animate id="edge19" attributeName="stroke-width" from="0" to="5" dur="0.2s" fill="freeze" begin="edge18.end" />
</line>
<line x1="265" y1="144" x2="311" y2="76" stroke="blue" stroke-width="0">
	<animate attributeName="stroke-width" from="10" to="0" dur="4s" begin="edge24.end" fill="freeze"/>
	<animate id="edge20" attributeName="stroke-width" from="0" to="5" dur="0.2s" fill="freeze" begin="edge19.end" />
</line>
<line x1="311" y1="76" x2="265" y2="144" stroke="blue" stroke-width="0">
	<animate attributeName="stroke-width" from="10" to="0" dur="4s" begin="edge24.end" fill="freeze"/>
	<animate id="edge21" attributeName="stroke-width" from="0" to="5" dur="0.2s" fill="freeze" begin="edge20.end" />
</line>
<line x1="265" y1="144" x2="214" y2="138" stroke="blue" stroke-width="0">
	<animate attributeName="stroke-width" from="10" to="0" dur="4s" begin="edge24.end" fill="freeze"/>
	<animate id="edge22" attributeName="stroke-width" from="0" to="5" dur="0.2s" fill="freeze" begin="edge21.end" />
</line>
<line x1="214" y1="138" x2="153" y2="136" stroke="blue" stroke-width="0">
	<animate attributeName="stroke-width" from="10" to="0" dur="4s" begin="edge24.end" fill="freeze"/>
	<animate id="edge23" attributeName="stroke-width" from="0" to="5" dur="0.2s" fill="freeze" begin="edge22.end" />
</line>
<line x1="153" y1="136" x2="110" y2="40" stroke="blue" stroke-width="0">
	<animate attributeName="stroke-width" from="10" to="0" dur="4s" begin="edge24.end" fill="freeze"/>
	<animate id="edge24" attributeName="stroke-width" from="0" to="5" dur="0.2s" fill="freeze" begin="edge23.end" />
</line>
<circle cx="110" cy="40" r="5" fill="red" />
<text x="117" y="40" fill="red">Edinburch</text>
<circle cx="153" cy="136" r="5" fill="red" />
<text x="160" y="136" fill="red">London</text>
<circle cx="214" cy="138" r="5" fill="red" />
<text x="221" y="138" fill="red">Amsterdam</text>
<circle cx="144" cy="192" r="5" fill="red" />
<text x="151" y="192" fill="red">Dieppe</text>
<circle cx="89" cy="211" r="5" fill="red" />
<text x="96" y="211" fill="red">Brest</text>
<circle cx="177" cy="222" r="5" fill="red" />
<text x="184" y="222" fill="red">Paris</text>
<circle cx="200" cy="168" r="5" fill="red" />
<text x="207" y="168" fill="red">Bruxelles</text>
<circle cx="265" cy="144" r="5" fill="red" />
<text x="272" y="144" fill="red">Essen</text>
<circle cx="256" cy="187" r="5" fill="red" />
<text x="263" y="187" fill="red">Frankfurt</text>
<circle cx="329" cy="153" r="5" fill="red" />
<text x="336" y="153" fill="red">Berlin</text>
<circle cx="294" cy="216" r="5" fill="red" />
<text x="301" y="216" fill="red">Munchen</text>
<circle cx="250" cy="256" r="5" fill="red" />
<text x="257" y="256" fill="red">Zurich</text>
<circle cx="366" cy="227" r="5" fill="red" />
<text x="373" y="227" fill="red">Wien</text>
<circle cx="303" cy="277" r="5" fill="red" />
<text x="310" y="277" fill="red">Venezia</text>
<circle cx="357" cy="285" r="5" fill="red" />
<text x="364" y="285" fill="red">Zagreb</text>
<circle cx="308" cy="334" r="5" fill="red" />
<text x="315" y="334" fill="red">Roma</text>
<circle cx="234" cy="316" r="5" fill="red" />
<text x="241" y="316" fill="red">Marseille</text>
<circle cx="136" cy="320" r="5" fill="red" />
<text x="143" y="320" fill="red">Pamplona</text>
<circle cx="74" cy="370" r="5" fill="red" />
<text x="81" y="370" fill="red">Madrid</text>
<circle cx="144" cy="378" r="5" fill="red" />
<text x="151" y="378" fill="red">Barcelonna</text>
<circle cx="30" cy="386" r="5" fill="red" />
<text x="37" y="386" fill="red">Lisboa</text>
<circle cx="73" cy="419" r="5" fill="red" />
<text x="80" y="419" fill="red">Cadiz</text>
<circle cx="332" cy="419" r="5" fill="red" />
<text x="339" y="419" fill="red">Palermo</text>
<circle cx="363" cy="352" r="5" fill="red" />
<text x="370" y="352" fill="red">Brindisi</text>
<circle cx="442" cy="401" r="5" fill="red" />
<text x="449" y="401" fill="red">Athena</text>
<circle cx="496" cy="417" r="5" fill="red" />
<text x="503" y="417" fill="red">Smyrna</text>
<circle cx="411" cy="322" r="5" fill="red" />
<text x="418" y="322" fill="red">Sarajevo</text>
<circle cx="455" cy="327" r="5" fill="red" />
<text x="462" y="327" fill="red">Sofia</text>
<circle cx="524" cy="366" r="5" fill="red" />
<text x="531" y="366" fill="red">Constantinople</text>
<circle cx="574" cy="402" r="5" fill="red" />
<text x="581" y="402" fill="red">Ancora</text>
<circle cx="580" cy="297" r="5" fill="red" />
<text x="587" y="297" fill="red">Sevastopol</text>
<circle cx="492" cy="287" r="5" fill="red" />
<text x="499" y="287" fill="red">Bucuresti</text>
<circle cx="625" cy="386" r="5" fill="red" />
<text x="632" y="386" fill="red">Erzurus</text>
<circle cx="638" cy="306" r="5" fill="red" />
<text x="645" y="306" fill="red">Socri</text>
<circle cx="641" cy="249" r="5" fill="red" />
<text x="648" y="249" fill="red">Rostov</text>
<circle cx="615" cy="214" r="5" fill="red" />
<text x="622" y="214" fill="red">Kharkov</text>
<circle cx="530" cy="182" r="5" fill="red" />
<text x="537" y="182" fill="red">Kyiv</text>
<circle cx="624" cy="118" r="5" fill="red" />
<text x="631" y="118" fill="red">Moskva</text>
<circle cx="563" cy="42" r="5" fill="red" />
<text x="570" y="42" fill="red">Petrograd</text>
<circle cx="568" cy="135" r="5" fill="red" />
<text x="575" y="135" fill="red">Skolensk</text>
<circle cx="504" cy="131" r="5" fill="red" />
<text x="511" y="131" fill="red">Wilno</text>
<circle cx="433" cy="148" r="5" fill="red" />
<text x="440" y="148" fill="red">Warszawa</text>
<circle cx="454" cy="45" r="5" fill="red" />
<text x="461" y="45" fill="red">Riga</text>
<circle cx="377" cy="27" r="5" fill="red" />
<text x="384" y="27" fill="red">Stockolm</text>
<circle cx="311" cy="76" r="5" fill="red" />
<text x="318" y="76" fill="red">Kobenhavn</text>
<circle cx="403" cy="103" r="5" fill="red" />
<text x="410" y="103" fill="red">Danzic</text>
<circle cx="395" cy="244" r="5" fill="red" />
<text x="402" y="244" fill="red">Budapest</text>
</svg>
